# xmcd
#
# Track frame offsets: 
#        150
#        13109
#        27480
#        40962
#        55492
#        69744
#        83967
#        99863
#        114684
#        126985
#        141699
#        155419
#        171188
#        185007
#        198084
#        213381
#        227333
#        239659
#        251753
#        267356
#        282032
#        295953
#        312147
#        325094
#
# Disc length: 4513 seconds
#
# Revision: 0
# Processed by: cddbd v1.5.2PL0 Copyright (c) Steve Scherf et al.
# Submitted via: ExactAudioCopy v0.99pb5
#
DISCID=6d119f18
DTITLE=Fats Waller  - The Complete Recorded Works, Vol.1 [CD3]  FLA
DTITLE=C
DYEAR=1900
DGENRE=
TTITLE0=Won't You Take Me Home?
TTITLE1=My Old Daddy's Got A Brand New Way To Love
TTITLE2=Anything That Happens Just Pleases Me
TTITLE3=I've Got The Joogie Blues
TTITLE4=Florence
TTITLE5=Gone But Not Forgotten
TTITLE6=You Live On In Memory
TTITLE7=Bye-Bye. Florence
TTITLE8=He's Gone Away
TTITLE9=I Ain't Got Nobody
TTITLE10=The Digah's Stomp
TTITLE11=Red Hot Dan
TTITLE12=Geechee
TTITLE13=Please Take Me Out Of Jail
TTITLE14=Back In Your Own Back Yard
TTITLE15=Nobody Knows How Much I Love You
TTITLE16=What's The Use Of Being Alone?
TTITLE17=Original Blues
TTITLE18=Willow Tree
TTITLE19='Sippi
TTITLE20=Thou Swell
TTITLE21=Persian Rug
TTITLE22=Chicago Blues
TTITLE23=Mournful Tho'ts
EXTD=
EXTT0=
EXTT1=
EXTT2=
EXTT3=
EXTT4=
EXTT5=
EXTT6=
EXTT7=
EXTT8=
EXTT9=
EXTT10=
EXTT11=
EXTT12=
EXTT13=
EXTT14=
EXTT15=
EXTT16=
EXTT17=
EXTT18=
EXTT19=
EXTT20=
EXTT21=
EXTT22=
EXTT23=
PLAYORDER=
